<?xml version="1.0" encoding="UTF-8"?>
<svg xmlns="http://www.w3.org/2000/svg" xmlns:xlink="http://www.w3.org/1999/xlink" width="20px" height="20px" viewBox="0 0 20 20" version="1.1">
<g id="surface1">
<path style=" stroke:none;fill-rule:nonzero;fill:rgb(69.803922%,72.156863%,72.156863%);fill-opacity:1;" d="M 1.875 0.347656 C 1.324219 0.503906 0.914062 0.847656 0.664062 1.355469 C 0.449219 1.800781 0.464844 1.015625 0.464844 10.800781 L 0.464844 19.609375 L 2.390625 17.683594 L 4.316406 15.753906 L 11.277344 15.75 L 18.242188 15.742188 L 18.425781 15.675781 C 19.097656 15.433594 19.527344 14.992188 19.730469 14.34375 C 19.777344 14.179688 19.78125 13.902344 19.78125 7.996094 L 19.78125 1.816406 L 19.699219 1.585938 C 19.503906 1.035156 19.109375 0.621094 18.550781 0.394531 L 18.328125 0.304688 L 10.1875 0.300781 C 2.507812 0.292969 2.039062 0.296875 1.875 0.347656 Z M 17.90625 7.980469 L 17.90625 13.808594 L 3.503906 13.808594 L 2.929688 14.378906 L 2.355469 14.957031 L 2.355469 2.152344 L 17.90625 2.152344 Z M 17.90625 7.980469 "/>
<path style=" stroke:none;fill-rule:nonzero;fill:rgb(69.803922%,72.156863%,72.156863%);fill-opacity:1;" d="M 4.332031 5.101562 L 4.332031 6.074219 L 15.929688 6.074219 L 15.929688 4.128906 L 4.332031 4.128906 Z M 4.332031 8.007812 L 4.332031 8.984375 L 15.929688 8.984375 L 15.929688 7.035156 L 4.332031 7.035156 Z M 4.332031 10.914062 L 4.332031 11.890625 L 15.929688 11.890625 L 15.929688 9.941406 L 4.332031 9.941406 Z M 4.332031 10.914062 "/>
</g>
</svg>
