<svg xmlns="http://www.w3.org/2000/svg" xmlns:xlink="http://www.w3.org/1999/xlink" version="1.1" width="50" height="50" viewBox="0 0 50 50" xml:space="preserve">
<desc>Created with Fabric.js 3.5.0</desc>
<defs>
</defs>
<rect x="0" y="0" width="100%" height="100%" fill="#ffffff"/>
<g transform="matrix(0.1736 0 0 0.1736 24.9984 24.9984)" id="400355">
<g style="" vector-effect="non-scaling-stroke">
		<g transform="matrix(12 0 0 12 0 0)" id="585032">
<path style="stroke: none; stroke-width: 1; stroke-dasharray: none; stroke-linecap: butt; stroke-dashoffset: 0; stroke-linejoin: miter; stroke-miterlimit: 4; is-custom-font: none; font-file-url: none; fill: none; fill-rule: nonzero; opacity: 1;" transform=" translate(-12, -12)" d="M 0 0 h 24 v 24 H 0 V 0 z" stroke-linecap="round"/>
</g>
		<g transform="matrix(12 0 0 12 0 0)" id="257924">
<path style="stroke: none; stroke-width: 1; stroke-dasharray: none; stroke-linecap: butt; stroke-dashoffset: 0; stroke-linejoin: miter; stroke-miterlimit: 4; is-custom-font: none; font-file-url: none; fill: rgb(210,216,216); fill-rule: nonzero; opacity: 1;" transform=" translate(-12, -12)" d="M 4 4 h 16 v 12 H 5.17 L 4 17.17 V 4 m 0 -2 c -1.1 0 -1.99 0.9 -1.99 2 L 2 22 l 4 -4 h 14 c 1.1 0 2 -0.9 2 -2 V 4 c 0 -1.1 -0.9 -2 -2 -2 H 4 z m 2 10 h 8 v 2 H 6 v -2 z m 0 -3 h 12 v 2 H 6 V 9 z m 0 -3 h 12 v 2 H 6 V 6 z" stroke-linecap="round"/>
</g>
</g>
</g>
</svg>